<svg width="24" height="24" viewBox="0 0 24 24" fill="none" xmlns="http://www.w3.org/2000/svg">
<path d="M19.25 17.4854C19.2498 16.3849 18.3573 15.4932 17.2568 15.4932C16.1565 15.4933 15.2649 16.385 15.2646 17.4854C15.2646 18.5859 16.1564 19.4783 17.2568 19.4785C18.3575 19.4785 19.25 18.586 19.25 17.4854ZM8.73535 12C8.73532 10.8995 7.84363 10.007 6.74316 10.0068C5.64256 10.0068 4.75003 10.8994 4.75 12C4.75 13.1006 5.64254 13.9932 6.74316 13.9932C7.84365 13.993 8.73535 13.1005 8.73535 12ZM19.25 6.51465C19.25 5.41402 18.3575 4.52148 17.2568 4.52148C16.1564 4.52165 15.2646 5.41413 15.2646 6.51465C15.2648 7.61503 16.1565 8.50667 17.2568 8.50684C18.3574 8.50684 19.2498 7.61513 19.25 6.51465ZM20.75 6.51465C20.7498 8.44356 19.1858 10.0068 17.2568 10.0068C16.072 10.0067 15.025 9.41695 14.3936 8.51465L9.99023 10.7158C10.1476 11.1135 10.2353 11.5463 10.2354 12C10.2354 12.4997 10.1295 12.9744 9.94043 13.4043L14.3203 15.5947C14.9421 14.6311 16.0248 13.9933 17.2568 13.9932C19.1857 13.9932 20.7498 15.5565 20.75 17.4854C20.75 19.4144 19.1859 20.9785 17.2568 20.9785C15.3279 20.9783 13.7646 19.4143 13.7646 17.4854C13.7647 17.324 13.7757 17.1653 13.7969 17.0098L9.03906 14.6309C8.42511 15.1672 7.6224 15.4931 6.74316 15.4932C4.81411 15.4932 3.25 13.9291 3.25 12C3.25003 10.071 4.81413 8.50684 6.74316 8.50684C7.6726 8.50692 8.51682 8.87083 9.14258 9.46289L13.8184 7.125C13.7834 6.92676 13.7647 6.72291 13.7646 6.51465C13.7646 4.5857 15.3279 3.02165 17.2568 3.02148C19.1859 3.02148 20.75 4.5856 20.75 6.51465Z" fill="#141924"/>
</svg>
