<svg width="24" height="24" viewBox="0 0 24 24" fill="none" xmlns="http://www.w3.org/2000/svg">
<path d="M16.3164 10.5332C16.3163 7.33922 13.7272 4.75 10.5332 4.75C7.33926 4.75007 4.75007 7.33926 4.75 10.5332C4.75 13.7272 7.33922 16.3163 10.5332 16.3164C13.7273 16.3164 16.3164 13.7273 16.3164 10.5332ZM17.8164 10.5332C17.8164 12.2957 17.1893 13.9111 16.1475 15.1709L20.5254 19.4648C20.8208 19.7549 20.8251 20.2298 20.5352 20.5254C20.2451 20.8208 19.7702 20.8251 19.4746 20.5352L15.0771 16.2227C13.8313 17.219 12.2525 17.8164 10.5332 17.8164C6.51079 17.8163 3.25 14.5556 3.25 10.5332C3.25007 6.51083 6.51083 3.25007 10.5332 3.25C14.5556 3.25 17.8163 6.51079 17.8164 10.5332Z" fill="#141924"/>
</svg>
