<svg width="24" height="24" viewBox="0 0 24 24" fill="none" xmlns="http://www.w3.org/2000/svg">
<path d="M14.1981 19.5049C14.5218 19.2463 14.9943 19.2994 15.2528 19.623C15.5111 19.9466 15.4582 20.4183 15.1347 20.6768C14.2922 21.3497 13.1921 21.75 11.9999 21.75C10.8077 21.75 9.70757 21.3497 8.86514 20.6768C8.54166 20.4183 8.48873 19.9466 8.74698 19.623C9.00551 19.2994 9.47804 19.2463 9.80167 19.5049C10.3746 19.9625 11.1433 20.25 11.9999 20.25C12.8565 20.25 13.6252 19.9625 14.1981 19.5049ZM11.9999 2.25C16.2362 2.25 19.5556 5.99199 19.5556 10.46V10.4688L19.5312 12.5459C19.5333 13.8775 20.0185 14.9913 20.5253 15.7539C20.8158 16.1911 20.7889 16.7126 20.6444 17.085C20.5042 17.4461 20.1334 17.9316 19.4931 17.9316H4.50772C3.85732 17.9316 3.48725 17.4323 3.35049 17.0693C3.2091 16.6939 3.18523 16.1633 3.48917 15.7246L3.68545 15.4219C4.13595 14.6801 4.51844 13.6894 4.51846 12.5371V12.5283L4.54288 10.3438C4.54679 5.93908 7.82071 2.25 11.9999 2.25ZM11.9999 3.75C8.77325 3.75 6.04292 6.63935 6.04288 10.3516V10.3604L6.01846 12.5449C6.01657 14.1556 5.4348 15.494 4.81729 16.4316H19.1806C18.5883 15.4919 18.0312 14.15 18.0312 12.5371V12.5283L18.0556 10.46L18.0478 10.1084C17.8817 6.50692 15.1785 3.75 11.9999 3.75Z" fill="#141924"/>
</svg>
