<svg preserveAspectRatio="none" width="100%" height="100%" overflow="visible" style="display: block;" viewBox="0 0 17.5 17.957" fill="none" xmlns="http://www.w3.org/2000/svg">
<path id="Vector (Stroke)" d="M16 14.4639C15.9998 13.3634 15.1073 12.4717 14.0068 12.4717C12.9065 12.4718 12.0149 13.3635 12.0146 14.4639C12.0146 15.5644 12.9064 16.4569 14.0068 16.457C15.1075 16.457 16 15.5645 16 14.4639ZM5.48535 8.97852C5.48532 7.87802 4.59363 6.98552 3.49316 6.98535C2.39256 6.98535 1.50003 7.87792 1.5 8.97852C1.5 10.0791 2.39254 10.9717 3.49316 10.9717C4.59365 10.9715 5.48535 10.079 5.48535 8.97852ZM16 3.49316C16 2.39254 15.1075 1.5 14.0068 1.5C12.9064 1.50017 12.0146 2.39264 12.0146 3.49316C12.0148 4.59355 12.9065 5.48519 14.0068 5.48535C15.1074 5.48535 15.9998 4.59365 16 3.49316ZM17.5 3.49316C17.4998 5.42208 15.9358 6.98535 14.0068 6.98535C12.822 6.98525 11.775 6.39547 11.1436 5.49316L6.74023 7.69434C6.89763 8.09201 6.98534 8.52485 6.98535 8.97852C6.98535 9.47824 6.87948 9.95295 6.69043 10.3828L11.0703 12.5732C11.6921 11.6097 12.7748 10.9718 14.0068 10.9717C15.9357 10.9717 17.4998 12.535 17.5 14.4639C17.5 16.3929 15.9359 17.957 14.0068 17.957C12.0779 17.9569 10.5146 16.3928 10.5146 14.4639C10.5147 14.3025 10.5257 14.1438 10.5469 13.9883L5.78906 11.6094C5.17511 12.1457 4.3724 12.4716 3.49316 12.4717C1.56411 12.4717 0 10.9076 0 8.97852C3.09242e-05 7.04949 1.56413 5.48535 3.49316 5.48535C4.4226 5.48543 5.26682 5.84934 5.89258 6.44141L10.5684 4.10352C10.5334 3.90528 10.5147 3.70143 10.5146 3.49316C10.5146 1.56421 12.0779 0.000165434 14.0068 0C15.9359 0 17.5 1.56411 17.5 3.49316Z" fill="var(--fill-0, #141924)"/>
</svg>
