<svg preserveAspectRatio="none" width="100%" height="100%" overflow="visible" style="display: block;" viewBox="0 0 20.758 17.9475" fill="none" xmlns="http://www.w3.org/2000/svg">
<path id="Icon (Stroke)" d="M15.1602 0.000205804C15.8969 -0.00613949 16.6276 0.134302 17.3096 0.413292C17.9916 0.69235 18.6117 1.10508 19.1328 1.62618C19.6537 2.14717 20.0657 2.7666 20.3447 3.44845C20.6238 4.13052 20.7642 4.86191 20.7578 5.59884C20.7514 6.3355 20.5983 7.06354 20.3076 7.74044C20.0185 8.41356 19.598 9.02231 19.0723 9.53243L10.8789 17.7277C10.7383 17.8683 10.5475 17.9475 10.3486 17.9475C10.1498 17.9474 9.95893 17.8683 9.81836 17.7277L1.625 9.53341C0.584628 8.49272 0.000103773 7.0811 0 5.60958C0 4.13801 0.584654 2.72651 1.625 1.68575C2.66573 0.64541 4.07729 0.0598147 5.54883 0.0597761C7.02035 0.0597761 8.43191 0.64449 9.47266 1.68478L10.3486 2.55978L11.2256 1.68478C11.7356 1.15932 12.3447 0.739461 13.0176 0.450401C13.6946 0.15961 14.4233 0.0066086 15.1602 0.000205804ZM1.5 5.60958C1.5001 6.68335 1.92638 7.71347 2.68555 8.47286L10.3486 16.1359L18.0215 8.4631L18.1631 8.31954C18.484 7.97705 18.743 7.58085 18.9287 7.14864C19.141 6.65453 19.2531 6.12292 19.2578 5.58517C19.2625 5.04751 19.1596 4.51445 18.9561 4.01681C18.7524 3.51908 18.4516 3.06699 18.0713 2.68673C17.691 2.3065 17.2389 2.00559 16.7412 1.80196C16.2436 1.5984 15.7105 1.49555 15.1729 1.50021C14.6351 1.50488 14.1035 1.61705 13.6094 1.82931C13.1154 2.04155 12.6685 2.3498 12.2949 2.73653L10.8789 4.15157C10.5862 4.44385 10.1121 4.44375 9.81934 4.15157L8.41211 2.7463C7.65262 1.98704 6.62274 1.55978 5.54883 1.55978C4.47497 1.55981 3.445 1.98708 2.68555 2.7463C1.92651 3.50575 1.5 4.53583 1.5 5.60958Z" fill="var(--fill-0, #141924)"/>
</svg>
