<svg width="24" height="24" viewBox="0 0 24 24" fill="none" xmlns="http://www.w3.org/2000/svg">
<path d="M16.8113 3.99142C17.548 3.98507 18.2788 4.12551 18.9607 4.4045C19.6428 4.68356 20.2628 5.09629 20.7839 5.61739C21.3048 6.13838 21.7169 6.75781 21.9958 7.43966C22.2749 8.12173 22.4153 8.85313 22.4089 9.59005C22.4025 10.3267 22.2495 11.0548 21.9587 11.7317C21.6696 12.4048 21.2491 13.0135 20.7234 13.5236L12.53 21.719C12.3894 21.8595 12.1986 21.9387 11.9998 21.9387C11.8009 21.9386 11.6101 21.8596 11.4695 21.719L3.27612 13.5246C2.23575 12.4839 1.65123 11.0723 1.65112 9.60079C1.65112 8.12922 2.23578 6.71772 3.27612 5.67696C4.31685 4.63662 5.72841 4.05103 7.19995 4.05099C8.67148 4.05099 10.083 4.6357 11.1238 5.67599L11.9998 6.55099L12.8767 5.67599C13.3867 5.15053 13.9958 4.73067 14.6687 4.44161C15.3457 4.15082 16.0745 3.99782 16.8113 3.99142ZM3.15112 9.60079C3.15123 10.6746 3.5775 11.7047 4.33667 12.4641L11.9998 20.1272L19.6726 12.4543L19.8142 12.3108C20.1352 11.9683 20.3942 11.5721 20.5798 11.1399C20.7921 10.6457 20.9043 10.1141 20.9089 9.57638C20.9136 9.03872 20.8108 8.50566 20.6072 8.00802C20.4035 7.51029 20.1027 7.05821 19.7224 6.67794C19.3422 6.29771 18.89 5.9968 18.3923 5.79317C17.8947 5.58961 17.3616 5.48676 16.824 5.49142C16.2862 5.49609 15.7546 5.60826 15.2605 5.82052C14.7665 6.03276 14.3196 6.34101 13.946 6.72774L12.53 8.14278C12.2373 8.43506 11.7633 8.43496 11.4705 8.14278L10.0632 6.73751C9.30375 5.97825 8.27387 5.55099 7.19995 5.55099C6.12609 5.55103 5.09612 5.97829 4.33667 6.73751C3.57763 7.49696 3.15112 8.52704 3.15112 9.60079Z" fill="#141924"/>
</svg>
