<svg preserveAspectRatio="none" width="100%" height="100%" overflow="visible" style="display: block;" viewBox="0 0 17.4999 19.5" fill="none" xmlns="http://www.w3.org/2000/svg">
<path id="Icon (Stroke)" d="M10.9481 17.2549C11.2718 16.9963 11.7443 17.0494 12.0028 17.373C12.2611 17.6966 12.2082 18.1683 11.8847 18.4268C11.0422 19.0997 9.94215 19.5 8.74991 19.5C7.55767 19.5 6.45757 19.0997 5.61514 18.4268C5.29166 18.1683 5.23873 17.6966 5.49698 17.373C5.75551 17.0494 6.22804 16.9963 6.55167 17.2549C7.12457 17.7125 7.89328 18 8.74991 18C9.60653 18 10.3752 17.7125 10.9481 17.2549ZM8.74991 0C12.9862 0 16.3056 3.74199 16.3056 8.20996V8.21875L16.2812 10.2959C16.2833 11.6275 16.7685 12.7413 17.2753 13.5039C17.5658 13.9411 17.5389 14.4626 17.3944 14.835C17.2542 15.1961 16.8834 15.6816 16.2431 15.6816H1.25772C0.607325 15.6816 0.237253 15.1823 0.100494 14.8193C-0.0408958 14.4439 -0.064768 13.9133 0.239166 13.4746L0.435455 13.1719C0.885953 12.4301 1.26844 11.4394 1.26846 10.2871V10.2783L1.29288 8.09375C1.29679 3.68908 4.57071 0 8.74991 0ZM8.74991 1.5C5.52325 1.5 2.79292 4.38935 2.79288 8.10156V8.11035L2.76846 10.2949C2.76657 11.9056 2.1848 13.244 1.56729 14.1816H15.9306C15.3383 13.2419 14.7812 11.9 14.7812 10.2871V10.2783L14.8056 8.20996L14.7978 7.8584C14.6317 4.25692 11.9285 1.5 8.74991 1.5Z" fill="var(--fill-0, #141924)"/>
</svg>
