<svg width="24" height="24" viewBox="0 0 24 24" fill="none" xmlns="http://www.w3.org/2000/svg">
<path d="M20.25 9.4159C20.25 9.30563 20.194 9.18764 20.0752 9.1073L12.2754 3.83191C12.1129 3.72209 11.8871 3.72209 11.7246 3.83191L3.9248 9.1073C3.80601 9.18764 3.75001 9.30563 3.75 9.4159V19.288C3.75 19.784 4.18405 20.2498 4.7998 20.2499H19.2002C19.8159 20.2498 20.25 19.784 20.25 19.288V9.4159ZM16.5 16.3124C16.9142 16.3124 17.25 16.6482 17.25 17.0624C17.25 17.4766 16.9142 17.8124 16.5 17.8124H7.5C7.08579 17.8124 6.75 17.4766 6.75 17.0624C6.75 16.6482 7.08579 16.3124 7.5 16.3124H16.5ZM21.75 19.288C21.75 20.6826 20.5725 21.7498 19.2002 21.7499H4.7998C3.42752 21.7498 2.25 20.6826 2.25 19.288V9.4159C2.25001 8.78761 2.56999 8.21295 3.08398 7.86512L10.8848 2.58973C11.5548 2.13676 12.4452 2.13676 13.1152 2.58973L20.916 7.86512C21.43 8.21295 21.75 8.78761 21.75 9.4159V19.288Z" fill="#141924"/>
</svg>
