<svg preserveAspectRatio="none" width="100%" height="100%" overflow="visible" style="display: block;" viewBox="0 0 17.4998 17.4998" fill="none" xmlns="http://www.w3.org/2000/svg">
<path id="Icon (Stroke)" d="M13.0664 7.2832C13.0663 4.08922 10.4772 1.5 7.2832 1.5C4.08926 1.50007 1.50007 4.08926 1.5 7.2832C1.5 10.4772 4.08922 13.0663 7.2832 13.0664C10.4773 13.0664 13.0664 10.4773 13.0664 7.2832ZM14.5664 7.2832C14.5664 9.04572 13.9393 10.6611 12.8975 11.9209L17.2754 16.2148C17.5708 16.5049 17.5751 16.9798 17.2852 17.2754C16.9951 17.5708 16.5202 17.5751 16.2246 17.2852L11.8271 12.9727C10.5813 13.969 9.00252 14.5664 7.2832 14.5664C3.26079 14.5663 0 11.3056 0 7.2832C7.06107e-05 3.26083 3.26083 7.06087e-05 7.2832 0C11.3056 0 14.5663 3.26079 14.5664 7.2832Z" fill="var(--fill-0, #141924)"/>
</svg>
