<svg preserveAspectRatio="none" width="100%" height="100%" overflow="visible" style="display: block;" viewBox="0 0 17.5 17.5" fill="none" xmlns="http://www.w3.org/2000/svg">
<path id="Vector (Stroke)" d="M0 14.9727V11.417H1.5V14.9727C1.50023 15.5399 1.96006 15.9998 2.52734 16H6.08301V17.5H2.52734C1.13163 17.4998 0.000234456 16.3684 0 14.9727ZM16 14.9727V11.417H17.5V14.9727C17.4998 16.3684 16.3684 17.4998 14.9727 17.5H11.417V16H14.9727C15.5399 15.9998 15.9998 15.5399 16 14.9727ZM11 6.875C11 6.66789 10.8321 6.5 10.625 6.5H6.875C6.66789 6.5 6.5 6.66789 6.5 6.875V10.625C6.5 10.8321 6.66789 11 6.875 11H10.625C10.8321 11 11 10.8321 11 10.625V6.875ZM0 2.52734C0.00023452 1.13163 1.13163 0.00023452 2.52734 0H6.08301V1.5H2.52734C1.96006 1.50023 1.50023 1.96006 1.5 2.52734V6.08301H0V2.52734ZM16 2.52734C15.9998 1.96006 15.5399 1.50023 14.9727 1.5H11.417V0H14.9727C16.3684 0.000234456 17.4998 1.13163 17.5 2.52734V6.08301H16V2.52734ZM12.5 10.625C12.5 11.6605 11.6605 12.5 10.625 12.5H6.875C5.83947 12.5 5 11.6605 5 10.625V6.875C5 5.83947 5.83947 5 6.875 5H10.625C11.6605 5 12.5 5.83947 12.5 6.875V10.625Z" fill="var(--fill-0, #141924)"/>
</svg>
